<?xml version="1.0" encoding="utf-8"?>
<!-- Generator: Adobe Illustrator 24.0.2, SVG Export Plug-In . SVG Version: 6.00 Build 0)  -->
<svg version="1.1" id="Capa_1" xmlns="http://www.w3.org/2000/svg" xmlns:xlink="http://www.w3.org/1999/xlink" x="0px" y="0px"
	 viewBox="0 0 19.9 10.7" style="enable-background:new 0 0 19.9 10.7;" xml:space="preserve">
<style type="text/css">
	.st0{fill-rule:evenodd;clip-rule:evenodd;fill:#FFFFFF;}
</style>
<path id="chevron-down" class="st0" d="M19.6,10.5c-0.3,0.3-0.8,0.3-1.1,0c0,0,0,0,0,0L9.9,1.8l-8.6,8.6c-0.3,0.3-0.8,0.2-1.1-0.1
	c-0.2-0.3-0.2-0.7,0-1l9.2-9.2c0.3-0.3,0.8-0.3,1.1,0c0,0,0,0,0,0l9.2,9.2C19.9,9.7,19.9,10.2,19.6,10.5
	C19.6,10.5,19.6,10.5,19.6,10.5L19.6,10.5z"/>
</svg>
