<svg id="SvgjsSvg1011" width="288" height="288" xmlns="http://www.w3.org/2000/svg" version="1.1" xmlns:xlink="http://www.w3.org/1999/xlink" xmlns:svgjs="http://svgjs.com/svgjs"><defs id="SvgjsDefs1012"></defs><g id="SvgjsG1013"><svg xmlns="http://www.w3.org/2000/svg" viewBox="0 0 48 48" width="288" height="288"><path d="M4 10h7.09a6 6 0 0 0 11.82 0H44a1 1 0 0 0 0-2H22.91A6 6 0 0 0 11.09 8H4a1 1 0 0 0 0 2zM17 5a4 4 0 1 1-4 4A4 4 0 0 1 17 5zM44 23H36.91a6 6 0 0 0-11.82 0H4a1 1 0 0 0 0 2H25.09a6 6 0 0 0 11.82 0H44a1 1 0 0 0 0-2zM31 28a4 4 0 1 1 4-4A4 4 0 0 1 31 28zM44 38H22.91a6 6 0 0 0-11.82 0H4a1 1 0 0 0 0 2h7.09a6 6 0 0 0 11.82 0H44a1 1 0 0 0 0-2zM17 43a4 4 0 1 1 4-4A4 4 0 0 1 17 43z" data-name="Layer 15" fill="#005198" class="color000 svgShape"></path></svg></g></svg>