<?xml version="1.0" encoding="utf-8"?>
<!-- Generator: Adobe Illustrator 24.0.2, SVG Export Plug-In . SVG Version: 6.00 Build 0)  -->
<svg version="1.1" id="Capa_1" xmlns="http://www.w3.org/2000/svg" xmlns:xlink="http://www.w3.org/1999/xlink" x="0px" y="0px"
	 viewBox="0 0 15.2 15.2" style="enable-background:new 0 0 15.2 15.2;" xml:space="preserve">
<style type="text/css">
	.st0{fill:#FFFFFF;}
</style>
<g id="_3" transform="translate(15.213 15.213) rotate(180)">
	<path id="Rectangle-348" class="st0" d="M13,8.3l-2.1,2.1c-0.2,0.2-0.2,0.6,0.1,0.8c0.2,0.2,0.5,0.2,0.7,0l3.1-3.1
		c0.2-0.2,0.2-0.6,0-0.8l0,0l-3.1-3.1c-0.2-0.2-0.5-0.3-0.8-0.1c-0.2,0.2-0.3,0.5-0.1,0.8c0,0,0,0,0.1,0.1l2.3,2.3l-12.4,0
		c-0.3,0-0.6,0.2-0.6,0.6c0,0.3,0.2,0.6,0.6,0.6L13,8.3z"/>
</g>
</svg>
