<svg id="youtube-negro" xmlns="http://www.w3.org/2000/svg" width="14.1" height="14.076" viewBox="0 0 14.1 14.076">
  <path id="Trazado_56" data-name="Trazado 56" d="M11.171,67.393H2.928A2.928,2.928,0,0,0,0,70.321v4.121A2.928,2.928,0,0,0,2.928,77.37h8.243A2.928,2.928,0,0,0,14.1,74.442V70.321A2.928,2.928,0,0,0,11.171,67.393Zm-1.98,5.189L5.335,74.421a.155.155,0,0,1-.221-.14V70.489a.155.155,0,0,1,.225-.138L9.194,72.3A.155.155,0,0,1,9.191,72.582Z" transform="translate(0 -65.358)" fill="#fff"/>
  <rect id="Rectángulo_4" data-name="Rectángulo 4" width="14.062" height="14.076" transform="translate(0.009)" fill="none"/>
</svg>
