<svg id="icon-download-blue" xmlns="http://www.w3.org/2000/svg" width="19.944" height="23" viewBox="0 0 19.944 23">
  <path id="Trazado_881" data-name="Trazado 881" d="M13.189,26.606a27.442,27.442,0,0,1-3.419-.932,9.851,9.851,0,0,1-5.781-9.635A9.983,9.983,0,0,1,10.64,7.211c.062,0,.124,0,.124-.062.435-.124.746-.062.932.373.186.373-.062.746-.5.87a7.986,7.986,0,0,0-3.543,2.3,8.234,8.234,0,0,0-1.927,8.454,8.194,8.194,0,0,0,6.465,5.843,8.565,8.565,0,0,0,10.319-8.7,8.686,8.686,0,0,0-5.595-7.832c-.746-.249-.995-.559-.808-.995s.559-.5,1.305-.249A9.977,9.977,0,0,1,15.8,26.357l-1.119.186A11.978,11.978,0,0,1,13.189,26.606Z" transform="translate(-3.971 -3.606)" fill="#005198"/>
  <path id="Trazado_882" data-name="Trazado 882" d="M17.324,1.5a1.363,1.363,0,0,1,.435,1.057v13.8c.186-.186.311-.249.435-.373.87-.808,1.678-1.678,2.549-2.486.373-.311.746-.373,1.057-.062a.647.647,0,0,1-.062.995L17.7,18.47a.7.7,0,0,1-1.119,0L12.538,14.43a.718.718,0,0,1-.062-1.057.729.729,0,0,1,1.057.124,32.273,32.273,0,0,0,2.984,2.8V2.432a.981.981,0,0,1,.435-.932Z" transform="translate(-7.111 -1.5)" fill="#005198"/>
</svg>
