<svg id="TWITTER" xmlns="http://www.w3.org/2000/svg" width="13.97" height="11.43" viewBox="0 0 13.97 11.43">
  <path id="Trazado_55" data-name="Trazado 55" d="M3.319,83.656A5.851,5.851,0,0,0,7.5,82.462a2.966,2.966,0,0,1-2.693-2.007,3.192,3.192,0,0,0,1.263-.05,2.968,2.968,0,0,1-2.281-2.87,3.067,3.067,0,0,0,1.3.348,2.91,2.91,0,0,1-1.258-2.488,2.681,2.681,0,0,1,.387-1.346,8.266,8.266,0,0,0,5.936,3.008c-.014-.105-.022-.188-.033-.274a2.866,2.866,0,0,1,2.317-3.215,2.768,2.768,0,0,1,2.51.727.327.327,0,0,0,.343.086,6.9,6.9,0,0,0,1.6-.622A2.988,2.988,0,0,1,15.741,75.3c.124-.022.252-.039.376-.064s.26-.058.39-.094.246-.072.368-.113a2.559,2.559,0,0,1,.4-.113c-.072.1-.141.2-.218.3a6.445,6.445,0,0,1-1.1,1.081.218.218,0,0,0-.075.155A8.465,8.465,0,0,1,12.1,83.692a7.728,7.728,0,0,1-2.632,1.064,8.693,8.693,0,0,1-2.817.122,7.8,7.8,0,0,1-2.69-.827c-.224-.113-.44-.241-.658-.362A.206.206,0,0,0,3.319,83.656Z" transform="translate(-3.3 -73.51)" fill="#fff"/>
</svg>
