<svg xmlns="http://www.w3.org/2000/svg" width="14" height="14" viewBox="0 0 14 14">
  <g id="person-add" transform="translate(-2 -2)">
    <path id="Trazado_866" data-name="Trazado 866" d="M12.5,16A3.5,3.5,0,1,0,9,12.5,3.5,3.5,0,0,0,12.5,16Zm.5-5v1h1a.5.5,0,0,1,0,1H13v1a.5.5,0,0,1-1,0V13H11a.5.5,0,0,1,0-1h1V11a.5.5,0,0,1,1,0ZM11,5A3,3,0,1,1,8,2a3,3,0,0,1,3,3ZM8,7A2,2,0,1,0,6,5,2,2,0,0,0,8,7Z" fill="#fff"/>
    <path id="Trazado_867" data-name="Trazado 867" d="M8.256,14a4.474,4.474,0,0,1-.229-1H3a2.672,2.672,0,0,1,.832-1.664A5.624,5.624,0,0,1,8,10c.26,0,.507.009.74.025a4.542,4.542,0,0,1,.8-.918A10.563,10.563,0,0,0,8,9c-5,0-6,3-6,4a.979.979,0,0,0,1,1H8.256Z" fill="#fff"/>
  </g>
</svg>
