<svg id="FB" xmlns="http://www.w3.org/2000/svg" width="7.564" height="14.843" viewBox="0 0 7.564 14.843">
  <path id="Trazado_51" data-name="Trazado 51" d="M143.987,19.831c-.074,0-.121.009-.168.009-1.007,0-2.012,0-3.019,0-.141,0-.18-.038-.18-.18q0-3.517,0-7.037v-.2H139v-2.5h.159c.442,0,.884,0,1.326,0,.112,0,.141-.032.141-.141-.006-.657-.006-1.317,0-1.974a2.9,2.9,0,0,1,.289-1.323,2.515,2.515,0,0,1,1.39-1.2,4.379,4.379,0,0,1,1.541-.274C144.7,5,145.554,5,146.408,5c.08,0,.144,0,.144.109q0,1.215,0,2.43a.24.24,0,0,1-.015.056h-.162c-.53,0-1.06,0-1.591,0a.771.771,0,0,0-.71.392.567.567,0,0,0-.077.277c-.009.5,0,1-.006,1.5,0,.118.035.15.15.15.736-.006,1.473,0,2.209,0h.215c-.1.842-.2,1.667-.306,2.5h-2.271Z" transform="translate(-139 -5)" fill="#fff"/>
</svg>
