<svg id="person-badge" xmlns="http://www.w3.org/2000/svg" width="25.987" height="34.649" viewBox="0 0 25.987 34.649">
  <path id="Trazado_62" data-name="Trazado 62" d="M8.248,2a1.083,1.083,0,0,0,0,2.166h6.5a1.083,1.083,0,0,0,0-2.166Zm9.745,12.993a6.5,6.5,0,1,1-6.5-6.5,6.5,6.5,0,0,1,6.5,6.5Z" transform="translate(1.497 2.331)" fill="#005198"/>
  <path id="Trazado_63" data-name="Trazado 63" d="M7.414,0A5.414,5.414,0,0,0,2,5.414v24.9a4.331,4.331,0,0,0,4.331,4.331H23.656a4.331,4.331,0,0,0,4.331-4.331V5.414A5.414,5.414,0,0,0,22.573,0ZM4.166,5.414A3.248,3.248,0,0,1,7.414,2.166H22.573a3.248,3.248,0,0,1,3.248,3.248V28.791a9.1,9.1,0,0,0-1.68-1.065,20.363,20.363,0,0,0-9.147-1.739,20.363,20.363,0,0,0-9.147,1.739,9.1,9.1,0,0,0-1.68,1.065Z" transform="translate(-2 0)" fill="#005198"/>
</svg>
