<svg id="LINKEDIN" xmlns="http://www.w3.org/2000/svg" width="13.489" height="13.431" viewBox="0 0 13.489 13.431">
  <path id="Trazado_52" data-name="Trazado 52" d="M173.5,170.275v-8.79c0-.08-.005-.144.112-.144.847.005,1.7,0,2.544,0a.574.574,0,0,1,.077.011v1.111c.011,0,.019.008.029.011.107-.139.208-.282.32-.418a2.776,2.776,0,0,1,1.212-.868,2.813,2.813,0,0,1,.82-.168,5.412,5.412,0,0,1,1.137.053,2.919,2.919,0,0,1,1.6.82,3.229,3.229,0,0,1,.855,1.489,8.978,8.978,0,0,1,.178.916,4.373,4.373,0,0,1,.048.645q0,2.6,0,5.194c0,.043,0,.085-.005.141h-.136c-.818,0-1.633,0-2.451,0-.136,0-.16-.045-.16-.168,0-1.593.008-3.188,0-4.781a3.413,3.413,0,0,0-.1-.839,1.394,1.394,0,0,0-.9-.986,2.016,2.016,0,0,0-1.215-.069,1.615,1.615,0,0,0-1,.812,1.9,1.9,0,0,0-.218.983c-.011,1.617-.005,3.231-.005,4.848v.189C175.321,170.275,174.418,170.275,173.5,170.275Z" transform="translate(-168.946 -156.852)" fill="#fff"/>
  <path id="Trazado_53" data-name="Trazado 53" d="M8.065,179.951c0,1.42,0,2.839,0,4.259,0,.128-.027.176-.168.173q-1.219-.012-2.437,0c-.133,0-.162-.045-.162-.168q0-4.279,0-8.561c0-.115.032-.154.149-.154q1.231.008,2.464,0c.128,0,.152.048.152.162Z" transform="translate(-5.228 -170.952)" fill="#fff"/>
  <path id="Trazado_54" data-name="Trazado 54" d="M4.025,4.77a1.324,1.324,0,0,1,1.4,1.4A1.344,1.344,0,0,1,3.993,7.559,1.345,1.345,0,0,1,2.6,6.144,1.334,1.334,0,0,1,4.025,4.77Z" transform="translate(-2.6 -4.769)" fill="#fff"/>
</svg>
