<svg xmlns="http://www.w3.org/2000/svg" width="34.65" height="34.649" viewBox="0 0 34.65 34.649">
  <path id="boxes" d="M16.788.143a1.083,1.083,0,0,1,1.074,0l8.121,4.641a1.083,1.083,0,0,1,.546.94v8.652L34.1,18.706a1.083,1.083,0,0,1,.546.936v9.282a1.083,1.083,0,0,1-.546.94L25.983,34.5a1.083,1.083,0,0,1-1.074,0l-7.584-4.331L9.741,34.506a1.083,1.083,0,0,1-1.074,0L.546,29.866A1.083,1.083,0,0,1,0,28.926V19.644a1.083,1.083,0,0,1,.546-.94l7.575-4.329V5.723a1.083,1.083,0,0,1,.546-.94ZM9.2,16.25,3.266,19.644,9.2,23.037l5.938-3.393Zm7.038,5.26-5.955,3.4V31.7l5.955-3.4ZM18.408,28.3l5.955,3.4V24.913l-5.955-3.4Zm1.1-8.654,5.938,3.393,5.938-3.393L25.446,16.25l-5.938,3.393Zm4.855-5.269V7.588l-5.955,3.4v6.787l5.955-3.4Zm-8.121,3.4V10.992l-5.955-3.4v6.787ZM11.387,5.723l5.938,3.393,5.938-3.393L17.325,2.33Zm21.1,15.787-5.955,3.4V31.7l5.955-3.4ZM8.121,31.7V24.913l-5.955-3.4V28.3Z" transform="translate(0 0)" fill="#005198"/>
</svg>
