<svg xmlns="http://www.w3.org/2000/svg" width="30.721" height="28.802" viewBox="0 0 30.721 28.802">
  <path id="star" d="M5.5,28.053a1.019,1.019,0,0,0,1.432,1.139l8.429-4.332,8.427,4.332a1.019,1.019,0,0,0,1.432-1.137l-1.594-9.082,6.762-6.444a1.066,1.066,0,0,0-.541-1.824l-9.4-1.336L16.252,1.062a.985.985,0,0,0-1.78,0l-4.193,8.31-9.4,1.336a1.068,1.068,0,0,0-.543,1.824L7.1,18.976,5.5,28.057Zm9.418-5.313L7.842,26.377l1.332-7.6a1.085,1.085,0,0,0-.313-.97l-5.58-5.318,7.78-1.106a1.008,1.008,0,0,0,.755-.553l3.542-7.023,3.546,7.023a1.008,1.008,0,0,0,.755.553l7.78,1.1-5.58,5.318a1.085,1.085,0,0,0-.313.972l1.332,7.6L15.8,22.741a.966.966,0,0,0-.885,0Z" transform="translate(-0.001 -0.499)" fill="#fff"/>
</svg>
