<svg id="Grupo_12" data-name="Grupo 12" xmlns="http://www.w3.org/2000/svg" width="15.13" height="14.441" viewBox="0 0 15.13 14.441">
  <g id="Grupo_9" data-name="Grupo 9">
    <path id="Trazado_58" data-name="Trazado 58" d="M34.213,1032.172a3.633,3.633,0,0,0-3.629,3.629v5.109a3.633,3.633,0,0,0,3.629,3.629h5.8a3.633,3.633,0,0,0,3.629-3.629V1035.8a3.633,3.633,0,0,0-3.629-3.629Zm5.8,13.4h-5.8a4.672,4.672,0,0,1-4.666-4.666V1035.8a4.672,4.672,0,0,1,4.666-4.666h5.8a4.671,4.671,0,0,1,4.666,4.666v5.109A4.672,4.672,0,0,1,40.01,1045.576Z" transform="translate(-29.547 -1031.135)" fill="#fff"/>
  </g>
  <g id="Grupo_10" data-name="Grupo 10" transform="translate(3.411 3.067)">
    <path id="Trazado_59" data-name="Trazado 59" d="M99.292,1091.139a3.117,3.117,0,1,0,3.117,3.117A3.12,3.12,0,0,0,99.292,1091.139Zm0,7.271a4.154,4.154,0,1,1,4.154-4.154A4.158,4.158,0,0,1,99.292,1098.409Z" transform="translate(-95.138 -1090.102)" fill="#fff"/>
  </g>
  <g id="Grupo_11" data-name="Grupo 11" transform="translate(10.793 2.333)">
    <path id="Trazado_60" data-name="Trazado 60" d="M238.788,1076.847a.862.862,0,1,1-.862-.862A.862.862,0,0,1,238.788,1076.847Z" transform="translate(-237.064 -1075.985)" fill="#fff"/>
  </g>
</svg>
