<svg id="SvgjsSvg1031" width="288" height="288" xmlns="http://www.w3.org/2000/svg" version="1.1" xmlns:xlink="http://www.w3.org/1999/xlink" xmlns:svgjs="http://svgjs.com/svgjs"><defs id="SvgjsDefs1032"></defs><g id="SvgjsG1033"><svg xmlns="http://www.w3.org/2000/svg" fill-rule="evenodd" stroke-linejoin="round" stroke-miterlimit="2" clip-rule="evenodd" viewBox="0 0 24 24" width="288" height="288"><path d="m12 19.586 5.293-5.293a1 1 0 0 1 1.414 1.414l-6 6a.999.999 0 0 1-1.414 0l-6-6a1 1 0 0 1 1.414-1.414zm0-15.172L6.707 9.707a1 1 0 0 1-1.414-1.414l6-6a.999.999 0 0 1 1.414 0l6 6a1 1 0 0 1-1.414 1.414z" fill="#838383" class="color000 svgShape"></path></svg></g></svg>