<svg id="zoom-in" xmlns="http://www.w3.org/2000/svg" width="16" height="16" viewBox="0 0 16 16">
  <path id="Trazado_66" data-name="Trazado 66" d="M6.5,12A5.5,5.5,0,1,0,1,6.5,5.5,5.5,0,0,0,6.5,12ZM13,6.5A6.5,6.5,0,1,1,6.5,0,6.5,6.5,0,0,1,13,6.5Z" fill="#005198" fill-rule="evenodd"/>
  <path id="Trazado_67" data-name="Trazado 67" d="M10.344,11.742a1.17,1.17,0,0,0,.1.115l3.85,3.85a1,1,0,0,0,1.415-1.414l-3.85-3.85a1.007,1.007,0,0,0-.115-.1,6.538,6.538,0,0,1-1.4,1.4Z" fill="#005198"/>
  <path id="Trazado_68" data-name="Trazado 68" d="M6.5,3a.5.5,0,0,1,.5.5V6H9.5a.5.5,0,0,1,0,1H7V9.5a.5.5,0,0,1-1,0V7H3.5a.5.5,0,0,1,0-1H6V3.5A.5.5,0,0,1,6.5,3Z" fill="#005198" fill-rule="evenodd"/>
</svg>
